<svg xmlns="http://www.w3.org/2000/svg" xmlns:xlink="http://www.w3.org/1999/xlink" width="221.7" height="256" viewBox="-259.81 -300 519.62 600">
	<polygon points="-216.51,-100 0,-300 86.6,-250 173.21,150 -86.6,250 -173.21,200" fill="#00a532" />
	<polygon points="86.6,-250 173.21,-200 216.51,125 0,300 -86.6,250 -86.6,50 0,100 129.91,200 86.6,50 -86.6,-50 -129.91,-200 0,-100 86.6,-50" fill="#00c789" />
	<polygon points="-259.81,-150 0,-300 0,-100 -86.6,-150 -86.6,-50 -173.21,-100 -173.21,200 -259.81,150" fill="#fff" />
	<polygon points="259.81,150 0,300 0,100 86.6,150 86.6,50 173.21,100 173.21,-200 259.81,-150" fill="#fff" />
</svg>